# xmcd
#
# Track frame offsets: 
#        150
#        14350
#        33163
#        48610
#        63065
#        80765
#        97944
#        111557
#        127150
#        142468
#        161546
#
# Disc length: 2391 seconds
#
# Revision: 0
# Processed by: cddbd v1.5.2PL0 Copyright (c) Steve Scherf et al.
# Submitted via: ExactAudioCopy v1.0b3
#
DISCID=9b09550b
DTITLE=Tim Styles - Just Bein' Alive
DYEAR=2011
DGENRE=Country
TTITLE0=Bubble Gum Love
TTITLE1=The Beginning
TTITLE2=That's Good
TTITLE3=Oklahoma Mourning
TTITLE4=Smoke'em If You Got'em
TTITLE5=Just Bein' Alive
TTITLE6=Just Call My Name
TTITLE7=Ashes
TTITLE8=Haunted Jukebox
TTITLE9=Have and Never Had
TTITLE10=Who Shot the Last Horse
EXTD=
EXTT0=
EXTT1=
EXTT2=
EXTT3=
EXTT4=
EXTT5=
EXTT6=
EXTT7=
EXTT8=
EXTT9=
EXTT10=
PLAYORDER=
